# xmcd
#
# Track frame offsets:
#	150
#	10343
#	21222
#	27219
#	36931
#	45551
#	54555
#	66479
#	75922
#	86754
#	94563
#	104664
#	115130
#	126129
#	135968
#	143765
#
# Disc length: 2018 seconds
#
# Revision: 0
# Processed by: cddbd v1.4PL0 Copyright (c) Steve Scherf et al.
# Submitted via: dBpowerAMP V4.0
#
DISCID=cd07e010
DTITLE=Johnny Cash - Greatest!
DYEAR=2003
DGENRE=Country
TTITLE0=Goodbye Little Darlin'
TTITLE1=I Just Thought You'd Like To Know
TTITLE2=You Tell Me
TTITLE3=It's Just About Time
TTITLE4=I Forgot To Remember To Forget
TTITLE5=Katy Too
TTITLE6=Thanks A Lot
TTITLE7=Luther Played The Boogie
TTITLE8=You Win Again
TTITLE9=Hey Good Lookin'
TTITLE10=I Could Never Be Ashamed Of You
TTITLE11=Get Rhythm
TTITLE12=Fools Hall Of Fame (unissued on Sun records)
TTITLE13=I Forgot To Remember To Forget (unissued, undubbd master)
TTITLE14=Hey Good Lookin' (unissued, undubbed master)
TTITLE15=Rock And Roll Ruby (unissued on Sun records)
EXTD=
EXTT0=
EXTT1=
EXTT2=
EXTT3=
EXTT4=
EXTT5=
EXTT6=
EXTT7=
EXTT8=
EXTT9=
EXTT10=
EXTT11=
EXTT12=
EXTT13=
EXTT14=
EXTT15=
PLAYORDER=
